<svg width="36" height="36" viewBox="0 0 36 36" fill="none" xmlns="http://www.w3.org/2000/svg">
<path d="M16.3619 0.931948C8.29467 1.8345 1.80631 8.51378 0.929552 16.6368C0.0527925 25.1212 4.78764 32.703 11.9781 35.5905C12.5038 35.7721 13.0295 35.4107 13.0295 34.6879V31.8005C13.0295 31.8005 12.3274 31.9803 11.4507 31.9803C8.99676 31.9803 7.94363 29.8138 7.76896 28.5516C7.59429 27.8289 7.24325 27.2877 6.71753 26.7465C6.19011 26.5649 6.01544 26.5649 6.01544 26.3851C6.01544 26.0237 6.54115 26.0237 6.71753 26.0237C7.76896 26.0237 8.64572 27.2877 8.99677 27.8289C9.87352 29.2726 10.925 29.634 11.4507 29.634C12.1528 29.634 12.6785 29.4542 13.0295 29.2726C13.2042 28.0087 13.7316 26.7465 14.783 26.0237C10.7503 25.1212 7.76896 22.7749 7.76896 18.8033C7.76896 16.8184 8.64572 14.8317 9.87352 13.3879C9.69715 13.0266 9.52248 12.124 9.52248 10.8601C9.52248 10.1391 9.52248 9.05496 10.0482 7.9726C10.0482 7.9726 12.5038 7.9726 14.9577 10.3189C15.8345 9.95752 17.0623 9.77771 18.2901 9.77771C19.5179 9.77771 20.7457 9.95752 21.7971 10.3189C24.0763 7.9726 26.7066 7.9726 26.7066 7.9726C27.0577 9.05496 27.0577 10.1391 27.0577 10.8601C27.0577 12.3056 26.883 13.0266 26.7066 13.3879C27.9344 14.8317 28.8112 16.6368 28.8112 18.8033C28.8112 22.7749 25.8299 25.1212 21.7971 26.0237C22.8485 26.9263 23.5506 28.5516 23.5506 30.1752V34.8695C23.5506 35.4107 24.0763 35.9519 24.7784 35.7721C31.2668 33.0644 35.8253 26.5649 35.8253 18.9831C35.8253 8.15241 26.883 -0.330223 16.3619 0.931948Z" fill="#727272"/>
</svg>
