<svg width="36" height="36" viewBox="0 0 36 36" fill="none" xmlns="http://www.w3.org/2000/svg">
<path d="M4.51389 0.625C2.36437 0.625 0.625 2.36437 0.625 4.51389V31.7361C0.625 33.8856 2.36437 35.625 4.51389 35.625H31.7361C33.8856 35.625 35.625 33.8856 35.625 31.7361V4.51389C35.625 2.36437 33.8856 0.625 31.7361 0.625H4.51389ZM4.51389 4.51389H31.7361V31.7361H4.51389V4.51389ZM9.91808 7.07357C8.25087 7.07357 7.25206 8.07617 7.25206 9.40918C7.25206 10.7422 8.25087 11.741 9.75098 11.741C11.4182 11.741 12.417 10.7422 12.417 9.40918C12.417 8.07617 11.4182 7.07357 9.91808 7.07357ZM7.38498 14.2361V27.8472H12.2917V14.2361H7.38498ZM16.3401 14.2361V27.8472H21.2467V20.4074C21.2467 18.1934 22.8266 17.8743 23.3013 17.8743C23.776 17.8743 25.0445 18.351 25.0445 20.4074V27.8472H29.7917V20.4074C29.7917 16.135 27.8928 14.2361 25.5192 14.2361C23.1456 14.2361 21.8791 15.026 21.2467 16.135V14.2361H16.3401Z" fill="#727272"/>
</svg>
