<svg width="44" height="36" viewBox="0 0 44 36" fill="none" xmlns="http://www.w3.org/2000/svg">
<path d="M37.8194 0.625H6.70833C3.48688 0.625 0.875 3.23688 0.875 6.45833V29.7917C0.875 33.0131 3.48688 35.625 6.70833 35.625H37.8194C41.0409 35.625 43.6528 33.0131 43.6528 29.7917V6.45833C43.6528 3.23688 41.0409 0.625 37.8194 0.625ZM37.8194 4.51389C38.0426 4.51389 38.2535 4.5591 38.4528 4.62813L22.2639 17.5791L6.07493 4.62813C6.27472 4.5591 6.48521 4.51389 6.70833 4.51389H37.8194ZM37.8194 31.7361H6.70833C5.63403 31.7361 4.76389 30.866 4.76389 29.7917V8.55979L21.0491 21.5876C21.404 21.8719 21.8342 22.0139 22.2639 22.0139C22.6936 22.0139 23.1238 21.8719 23.4787 21.5876L39.7639 8.55979V29.7917C39.7639 30.866 38.8938 31.7361 37.8194 31.7361Z" fill="#727272"/>
</svg>
